<svg xmlns="http://www.w3.org/2000/svg" width="495" height="504" viewBox="0 0 495 504" version="1.1"><path d="M 207.500 1 C 207.840 1.550, 208.316 2, 208.559 2 C 208.802 2, 209 1.550, 209 1 C 209 0.450, 208.523 0, 207.941 0 C 207.359 0, 207.160 0.450, 207.500 1 M 282.813 0.683 C 283.534 0.972, 284.397 0.936, 284.729 0.604 C 285.061 0.272, 284.471 0.036, 283.417 0.079 C 282.252 0.127, 282.015 0.364, 282.813 0.683 M 201.813 1.683 C 202.534 1.972, 203.397 1.936, 203.729 1.604 C 204.061 1.272, 203.471 1.036, 202.417 1.079 C 201.252 1.127, 201.015 1.364, 201.813 1.683 M 289.813 1.683 C 290.534 1.972, 291.397 1.936, 291.729 1.604 C 292.061 1.272, 291.471 1.036, 290.417 1.079 C 289.252 1.127, 289.015 1.364, 289.813 1.683 M 196.269 2.693 C 197.242 2.947, 198.592 2.930, 199.269 2.656 C 199.946 2.382, 199.150 2.175, 197.500 2.195 C 195.850 2.215, 195.296 2.439, 196.269 2.693 M 294.813 2.683 C 295.534 2.972, 296.397 2.936, 296.729 2.604 C 297.061 2.272, 296.471 2.036, 295.417 2.079 C 294.252 2.127, 294.015 2.364, 294.813 2.683 M 188.500 4 C 185.952 5.095, 188.581 5.095, 192 4 C 194.010 3.356, 194.108 3.194, 192.500 3.170 C 191.400 3.154, 189.600 3.527, 188.500 4 M 299.813 3.683 C 300.534 3.972, 301.397 3.936, 301.729 3.604 C 302.061 3.272, 301.471 3.036, 300.417 3.079 C 299.252 3.127, 299.015 3.364, 299.813 3.683 M 304.333 4.667 C 304.700 5.033, 305.300 5.033, 305.667 4.667 C 306.033 4.300, 305.733 4, 305 4 C 304.267 4, 303.967 4.300, 304.333 4.667 M 183.813 5.683 C 184.534 5.972, 185.397 5.936, 185.729 5.604 C 186.061 5.272, 185.471 5.036, 184.417 5.079 C 183.252 5.127, 183.015 5.364, 183.813 5.683 M 191 5.500 C 191 5.775, 191.225 6, 191.500 6 C 191.775 6, 192 5.775, 192 5.500 C 192 5.225, 191.775 5, 191.500 5 C 191.225 5, 191 5.225, 191 5.500 M 308.333 5.667 C 308.700 6.033, 309.300 6.033, 309.667 5.667 C 310.033 5.300, 309.733 5, 309 5 C 308.267 5, 307.967 5.300, 308.333 5.667 M 180.333 6.667 C 180.700 7.033, 181.300 7.033, 181.667 6.667 C 182.033 6.300, 181.733 6, 181 6 C 180.267 6, 179.967 6.300, 180.333 6.667 M 312.333 6.667 C 312.700 7.033, 313.300 7.033, 313.667 6.667 C 314.033 6.300, 313.733 6, 313 6 C 312.267 6, 311.967 6.300, 312.333 6.667 M 176.333 7.667 C 176.700 8.033, 177.300 8.033, 177.667 7.667 C 178.033 7.300, 177.733 7, 177 7 C 176.267 7, 175.967 7.300, 176.333 7.667 M 316 7.500 C 316 7.775, 316.225 8, 316.500 8 C 316.775 8, 317 7.775, 317 7.500 C 317 7.225, 316.775 7, 316.500 7 C 316.225 7, 316 7.225, 316 7.500 M 170 9.500 C 168.075 10.241, 167.175 10.862, 168 10.879 C 168.825 10.896, 170.850 10.292, 172.500 9.536 C 176.362 7.768, 174.566 7.742, 170 9.500 M 320 8.500 C 320 8.775, 320.225 9, 320.500 9 C 320.775 9, 321 8.775, 321 8.500 C 321 8.225, 320.775 8, 320.500 8 C 320.225 8, 320 8.225, 320 8.500 M 323 9.500 C 323 9.775, 323.225 10, 323.500 10 C 323.775 10, 324 9.775, 324 9.500 C 324 9.225, 323.775 9, 323.500 9 C 323.225 9, 323 9.225, 323 9.500 M 326.333 10.667 C 326.700 11.033, 327.300 11.033, 327.667 10.667 C 328.033 10.300, 327.733 10, 327 10 C 326.267 10, 325.967 10.300, 326.333 10.667 M 164.333 11.667 C 164.700 12.033, 165.300 12.033, 165.667 11.667 C 166.033 11.300, 165.733 11, 165 11 C 164.267 11, 163.967 11.300, 164.333 11.667 M 329 11.500 C 329 11.775, 329.225 12, 329.500 12 C 329.775 12, 330 11.775, 330 11.500 C 330 11.225, 329.775 11, 329.500 11 C 329.225 11, 329 11.225, 329 11.500 M 160 13 C 159.175 13.533, 158.950 13.969, 159.500 13.969 C 160.050 13.969, 161.175 13.533, 162 13 C 162.825 12.467, 163.050 12.031, 162.500 12.031 C 161.950 12.031, 160.825 12.467, 160 13 M 331 12.500 C 331 12.775, 331.225 13, 331.500 13 C 331.775 13, 332 12.775, 332 12.500 C 332 12.225, 331.775 12, 331.500 12 C 331.225 12, 331 12.225, 331 12.500 M 232.500 14.088 C 208.314 15.327, 190.294 19.105, 167.500 27.716 C 137.912 38.893, 110.679 55.956, 88.314 77.329 C 74.619 90.417, 57.382 111.192, 58.593 113.151 C 60.074 115.547, 63.176 113.444, 68.401 106.503 C 80.445 90.501, 103.946 68.701, 122.500 56.320 C 128.599 52.250, 144.828 43.198, 153 39.308 C 164.036 34.054, 189.418 25.523, 191.036 26.523 C 191.472 26.792, 191.980 26.637, 192.165 26.179 C 192.764 24.688, 212.792 21.202, 219.234 21.467 C 223.274 21.633, 224.612 21.454, 223 20.962 C 220.726 20.268, 220.816 20.189, 224 20.086 C 225.925 20.024, 228.625 19.715, 230 19.400 C 231.960 18.950, 232.176 19.058, 231 19.898 C 229.790 20.762, 230.043 20.972, 232.309 20.985 C 233.930 20.994, 234.857 20.577, 234.500 20 C 233.678 18.670, 250.916 18.693, 267.605 20.044 C 299.262 22.605, 335.057 34.097, 363.958 50.975 C 381.867 61.435, 411.981 88.112, 424.726 104.809 C 430.422 112.272, 435 115.291, 435 111.585 C 435 109.545, 417.118 88.298, 408.368 79.942 C 391.249 63.594, 370.961 48.801, 353.048 39.606 C 328.104 26.802, 290.644 15.874, 266.810 14.450 C 249.655 13.425, 246.156 13.388, 232.500 14.088 M 334 13.500 C 334 13.775, 334.225 14, 334.500 14 C 334.775 14, 335 13.775, 335 13.500 C 335 13.225, 334.775 13, 334.500 13 C 334.225 13, 334 13.225, 334 13.500 M 155 15 C 154.175 15.533, 153.950 15.969, 154.500 15.969 C 155.050 15.969, 156.175 15.533, 157 15 C 157.825 14.467, 158.050 14.031, 157.500 14.031 C 156.950 14.031, 155.825 14.467, 155 15 M 336 14.500 C 336 14.775, 336.225 15, 336.500 15 C 336.775 15, 337 14.775, 337 14.500 C 337 14.225, 336.775 14, 336.500 14 C 336.225 14, 336 14.225, 336 14.500 M 338.333 15.667 C 338.700 16.033, 339.300 16.033, 339.667 15.667 C 340.033 15.300, 339.733 15, 339 15 C 338.267 15, 337.967 15.300, 338.333 15.667 M 151.333 16.667 C 151.700 17.033, 152.300 17.033, 152.667 16.667 C 153.033 16.300, 152.733 16, 152 16 C 151.267 16, 150.967 16.300, 151.333 16.667 M 341 16.500 C 341 16.775, 341.225 17, 341.500 17 C 341.775 17, 342 16.775, 342 16.500 C 342 16.225, 341.775 16, 341.500 16 C 341.225 16, 341 16.225, 341 16.500 M 149 17.500 C 149 17.775, 149.225 18, 149.500 18 C 149.775 18, 150 17.775, 150 17.500 C 150 17.225, 149.775 17, 149.500 17 C 149.225 17, 149 17.225, 149 17.500 M 343 17.500 C 343 17.775, 343.225 18, 343.500 18 C 343.775 18, 344 17.775, 344 17.500 C 344 17.225, 343.775 17, 343.500 17 C 343.225 17, 343 17.225, 343 17.500 M 147 18.500 C 147 18.775, 147.225 19, 147.500 19 C 147.775 19, 148 18.775, 148 18.500 C 148 18.225, 147.775 18, 147.500 18 C 147.225 18, 147 18.225, 147 18.500 M 346 18.500 C 346 18.775, 346.225 19, 346.500 19 C 346.775 19, 347 18.775, 347 18.500 C 347 18.225, 346.775 18, 346.500 18 C 346.225 18, 346 18.225, 346 18.500 M 145 19.500 C 145 19.775, 145.225 20, 145.500 20 C 145.775 20, 146 19.775, 146 19.500 C 146 19.225, 145.775 19, 145.500 19 C 145.225 19, 145 19.225, 145 19.500 M 348 19.500 C 348 19.775, 348.225 20, 348.500 20 C 348.775 20, 349 19.775, 349 19.500 C 349 19.225, 348.775 19, 348.500 19 C 348.225 19, 348 19.225, 348 19.500 M 142.333 20.667 C 142.700 21.033, 143.300 21.033, 143.667 20.667 C 144.033 20.300, 143.733 20, 143 20 C 142.267 20, 141.967 20.300, 142.333 20.667 M 245.333 20.667 C 245.700 21.033, 246.300 21.033, 246.667 20.667 C 247.033 20.300, 246.733 20, 246 20 C 245.267 20, 244.967 20.300, 245.333 20.667 M 248.333 20.667 C 248.700 21.033, 249.300 21.033, 249.667 20.667 C 250.033 20.300, 249.733 20, 249 20 C 248.267 20, 247.967 20.300, 248.333 20.667 M 350 20.500 C 350 20.775, 350.225 21, 350.500 21 C 350.775 21, 351 20.775, 351 20.500 C 351 20.225, 350.775 20, 350.500 20 C 350.225 20, 350 20.225, 350 20.500 M 135.750 23.566 C 133.137 24.926, 131 26.262, 131 26.536 C 131 26.810, 133.250 25.894, 136 24.500 C 138.750 23.106, 141 21.749, 141 21.483 C 141 20.822, 141.090 20.786, 135.750 23.566 M 352 21.500 C 352 21.775, 352.225 22, 352.500 22 C 352.775 22, 353 21.775, 353 21.500 C 353 21.225, 352.775 21, 352.500 21 C 352.225 21, 352 21.225, 352 21.500 M 226.630 23.030 C 227.313 23.713, 228.478 23.734, 230.080 23.094 C 232.354 22.185, 232.292 22.123, 229.050 22.063 C 226.682 22.020, 225.923 22.323, 226.630 23.030 M 235.333 22.667 C 235.700 23.033, 236.300 23.033, 236.667 22.667 C 237.033 22.300, 236.733 22, 236 22 C 235.267 22, 234.967 22.300, 235.333 22.667 M 354 22.500 C 354 22.775, 354.225 23, 354.500 23 C 354.775 23, 355 22.775, 355 22.500 C 355 22.225, 354.775 22, 354.500 22 C 354.225 22, 354 22.225, 354 22.500 M 356 23.500 C 356 23.775, 356.225 24, 356.500 24 C 356.775 24, 357 23.775, 357 23.500 C 357 23.225, 356.775 23, 356.500 23 C 356.225 23, 356 23.225, 356 23.500 M 205 24.500 C 205 24.775, 205.225 25, 205.500 25 C 205.775 25, 206 24.775, 206 24.500 C 206 24.225, 205.775 24, 205.500 24 C 205.225 24, 205 24.225, 205 24.500 M 358 24.500 C 358 24.775, 358.225 25, 358.500 25 C 358.775 25, 359 24.775, 359 24.500 C 359 24.225, 358.775 24, 358.500 24 C 358.225 24, 358 24.225, 358 24.500 M 360 25.500 C 360 25.775, 360.225 26, 360.500 26 C 360.775 26, 361 25.775, 361 25.500 C 361 25.225, 360.775 25, 360.500 25 C 360.225 25, 360 25.225, 360 25.500 M 362 26.500 C 362 26.775, 362.225 27, 362.500 27 C 362.775 27, 363 26.775, 363 26.500 C 363 26.225, 362.775 26, 362.500 26 C 362.225 26, 362 26.225, 362 26.500 M 129 27.500 C 129 27.775, 129.225 28, 129.500 28 C 129.775 28, 130 27.775, 130 27.500 C 130 27.225, 129.775 27, 129.500 27 C 129.225 27, 129 27.225, 129 27.500 M 125.441 29.555 C 123.577 31.049, 123.589 31.067, 125.750 30.020 C 126.987 29.420, 128 28.720, 128 28.465 C 128 27.700, 127.481 27.921, 125.441 29.555 M 185 29 C 184.099 29.582, 183.975 29.975, 184.691 29.985 C 185.346 29.993, 186.160 29.550, 186.500 29 C 187.267 27.758, 186.921 27.758, 185 29 M 365 28.500 C 365 28.775, 365.225 29, 365.500 29 C 365.775 29, 366 28.775, 366 28.500 C 366 28.225, 365.775 28, 365.500 28 C 365.225 28, 365 28.225, 365 28.500 M 192 29.500 C 192 29.775, 192.225 30, 192.500 30 C 192.775 30, 193 29.775, 193 29.500 C 193 29.225, 192.775 29, 192.500 29 C 192.225 29, 192 29.225, 192 29.500 M 180 30.500 C 180 30.775, 180.225 31, 180.500 31 C 180.775 31, 181 30.775, 181 30.500 C 181 30.225, 180.775 30, 180.500 30 C 180.225 30, 180 30.225, 180 30.500 M 369 30.500 C 369 30.775, 369.225 31, 369.500 31 C 369.775 31, 370 30.775, 370 30.500 C 370 30.225, 369.775 30, 369.500 30 C 369.225 30, 369 30.225, 369 30.500 M 121 32 C 120.099 32.582, 119.975 32.975, 120.691 32.985 C 121.346 32.993, 122.160 32.550, 122.500 32 C 123.267 30.758, 122.921 30.758, 121 32 M 372 32.500 C 372 32.775, 372.225 33, 372.500 33 C 372.775 33, 373 32.775, 373 32.500 C 373 32.225, 372.775 32, 372.500 32 C 372.225 32, 372 32.225, 372 32.500 M 172 33.500 C 172 33.775, 172.225 34, 172.500 34 C 172.775 34, 173 33.775, 173 33.500 C 173 33.225, 172.775 33, 172.500 33 C 172.225 33, 172 33.225, 172 33.500 M 374 33.500 C 374 33.775, 374.225 34, 374.500 34 C 374.775 34, 375 33.775, 375 33.500 C 375 33.225, 374.775 33, 374.500 33 C 374.225 33, 374 33.225, 374 33.500 M 117 34.500 C 117 34.775, 117.225 35, 117.500 35 C 117.775 35, 118 34.775, 118 34.500 C 118 34.225, 117.775 34, 117.500 34 C 117.225 34, 117 34.225, 117 34.500 M 166.333 35.667 C 166.700 36.033, 167.300 36.033, 167.667 35.667 C 168.033 35.300, 167.733 35, 167 35 C 166.267 35, 165.967 35.300, 166.333 35.667 M 377 35.500 C 377 35.775, 377.225 36, 377.500 36 C 377.775 36, 378 35.775, 378 35.500 C 378 35.225, 377.775 35, 377.500 35 C 377.225 35, 377 35.225, 377 35.500 M 114 36.500 C 114 36.775, 114.225 37, 114.500 37 C 114.775 37, 115 36.775, 115 36.500 C 115 36.225, 114.775 36, 114.500 36 C 114.225 36, 114 36.225, 114 36.500 M 164 36.500 C 164 36.775, 164.225 37, 164.500 37 C 164.775 37, 165 36.775, 165 36.500 C 165 36.225, 164.775 36, 164.500 36 C 164.225 36, 164 36.225, 164 36.500 M 379.500 37 C 379.840 37.550, 380.343 38, 380.618 38 C 380.893 38, 380.840 37.550, 380.500 37 C 380.160 36.450, 379.657 36, 379.382 36 C 379.107 36, 379.160 36.450, 379.500 37 M 111 38.500 C 111 38.775, 111.225 39, 111.500 39 C 111.775 39, 112 38.775, 112 38.500 C 112 38.225, 111.775 38, 111.500 38 C 111.225 38, 111 38.225, 111 38.500 M 382 38.500 C 382 38.775, 382.225 39, 382.500 39 C 382.775 39, 383 38.775, 383 38.500 C 383 38.225, 382.775 38, 382.500 38 C 382.225 38, 382 38.225, 382 38.500 M 108 40.500 C 108 40.775, 108.225 41, 108.500 41 C 108.775 41, 109 40.775, 109 40.500 C 109 40.225, 108.775 40, 108.500 40 C 108.225 40, 108 40.225, 108 40.500 M 385 40.500 C 385 40.775, 385.225 41, 385.500 41 C 385.775 41, 386 40.775, 386 40.500 C 386 40.225, 385.775 40, 385.500 40 C 385.225 40, 385 40.225, 385 40.500 M 104.405 43.155 C 103.962 43.870, 104.130 44.038, 104.845 43.595 C 105.480 43.203, 106 42.684, 106 42.441 C 106 41.607, 105.117 42.002, 104.405 43.155 M 388 42.500 C 388 42.775, 388.225 43, 388.500 43 C 388.775 43, 389 42.775, 389 42.500 C 389 42.225, 388.775 42, 388.500 42 C 388.225 42, 388 42.225, 388 42.500 M 101 45.500 C 101 45.775, 101.225 46, 101.500 46 C 101.775 46, 102 45.775, 102 45.500 C 102 45.225, 101.775 45, 101.500 45 C 101.225 45, 101 45.225, 101 45.500 M 392 45.500 C 392 45.775, 392.225 46, 392.500 46 C 392.775 46, 393 45.775, 393 45.500 C 393 45.225, 392.775 45, 392.500 45 C 392.225 45, 392 45.225, 392 45.500 M 151 46.500 C 151 46.775, 151.225 47, 151.500 47 C 151.775 47, 152 46.775, 152 46.500 C 152 46.225, 151.775 46, 151.500 46 C 151.225 46, 151 46.225, 151 46.500 M 98 47.500 C 98 47.775, 98.225 48, 98.500 48 C 98.775 48, 99 47.775, 99 47.500 C 99 47.225, 98.775 47, 98.500 47 C 98.225 47, 98 47.225, 98 47.500 M 93 51.500 C 93 51.775, 93.225 52, 93.500 52 C 93.775 52, 94 51.775, 94 51.500 C 94 51.225, 93.775 51, 93.500 51 C 93.225 51, 93 51.225, 93 51.500 M 240.378 55.490 C 232.496 60.215, 230.102 68.116, 234.186 75.926 C 239.479 86.049, 254.219 86.950, 259.961 77.500 C 265.425 68.509, 262.226 58.236, 252.703 54.189 C 248.467 52.389, 244.928 52.762, 240.378 55.490 M 87.405 56.155 C 86.962 56.870, 87.130 57.038, 87.845 56.595 C 88.480 56.203, 89 55.684, 89 55.441 C 89 54.607, 88.117 55.002, 87.405 56.155 M 405.500 56 C 405.840 56.550, 406.343 57, 406.618 57 C 406.893 57, 406.840 56.550, 406.500 56 C 406.160 55.450, 405.657 55, 405.382 55 C 405.107 55, 405.160 55.450, 405.500 56 M 79.405 63.250 C 77.500 65.500, 77.500 65.500, 79.750 63.595 C 80.987 62.547, 82 61.535, 82 61.345 C 82 60.545, 81.195 61.136, 79.405 63.250 M 412.500 62 C 412.840 62.550, 413.343 63, 413.618 63 C 413.893 63, 413.840 62.550, 413.500 62 C 413.160 61.450, 412.657 61, 412.382 61 C 412.107 61, 412.160 61.450, 412.500 62 M 64 78.500 C 64 78.775, 64.225 79, 64.500 79 C 64.775 79, 65 78.775, 65 78.500 C 65 78.225, 64.775 78, 64.500 78 C 64.225 78, 64 78.225, 64 78.500 M 55 88.500 C 55 88.775, 55.225 89, 55.500 89 C 55.775 89, 56 88.775, 56 88.500 C 56 88.225, 55.775 88, 55.500 88 C 55.225 88, 55 88.225, 55 88.500 M 51 93.500 C 51 93.775, 51.225 94, 51.500 94 C 51.775 94, 52 93.775, 52 93.500 C 52 93.225, 51.775 93, 51.500 93 C 51.225 93, 51 93.225, 51 93.500 M 46 100.500 C 46 100.775, 46.225 101, 46.500 101 C 46.775 101, 47 100.775, 47 100.500 C 47 100.225, 46.775 100, 46.500 100 C 46.225 100, 46 100.225, 46 100.500 M 40 109.500 C 40 109.775, 40.225 110, 40.500 110 C 40.775 110, 41 109.775, 41 109.500 C 41 109.225, 40.775 109, 40.500 109 C 40.225 109, 40 109.225, 40 109.500 M 38 112.500 C 38 112.775, 38.225 113, 38.500 113 C 38.775 113, 39 112.775, 39 112.500 C 39 112.225, 38.775 112, 38.500 112 C 38.225 112, 38 112.225, 38 112.500 M 36 115.500 C 36 115.775, 36.225 116, 36.500 116 C 36.775 116, 37 115.775, 37 115.500 C 37 115.225, 36.775 115, 36.500 115 C 36.225 115, 36 115.225, 36 115.500 M 33 120.500 C 33 120.775, 33.225 121, 33.500 121 C 33.775 121, 34 120.775, 34 120.500 C 34 120.225, 33.775 120, 33.500 120 C 33.225 120, 33 120.225, 33 120.500 M 22 141.500 C 22 141.775, 22.225 142, 22.500 142 C 22.775 142, 23 141.775, 23 141.500 C 23 141.225, 22.775 141, 22.500 141 C 22.225 141, 22 141.225, 22 141.500 M 21 143.500 C 21 143.775, 21.225 144, 21.500 144 C 21.775 144, 22 143.775, 22 143.500 C 22 143.225, 21.775 143, 21.500 143 C 21.225 143, 21 143.225, 21 143.500 M 472 143.500 C 472 143.775, 472.225 144, 472.500 144 C 472.775 144, 473 143.775, 473 143.500 C 473 143.225, 472.775 143, 472.500 143 C 472.225 143, 472 143.225, 472 143.500 M 181.936 155.750 C 175.960 158.781, 170.775 164.776, 168.942 170.775 C 167.319 176.085, 166.854 219.898, 167.744 283.575 L 168.500 337.650 171.269 341.833 C 175.008 347.480, 181.023 351.638, 187.574 353.104 C 198.054 355.449, 200.209 354.472, 255 322.538 C 328.433 279.738, 338.726 273.613, 341.342 271.163 C 346.373 266.448, 348.375 261.326, 348.441 253 C 348.492 246.517, 348.119 244.851, 345.687 240.714 C 342.353 235.043, 338.377 232.041, 320.733 221.876 C 313.455 217.682, 291.975 205.257, 273 194.265 C 203.094 153.766, 201.619 153, 193.596 153 C 188.773 153, 186.129 153.623, 181.936 155.750 M 14 160.500 C 14 160.775, 14.225 161, 14.500 161 C 14.775 161, 15 160.775, 15 160.500 C 15 160.225, 14.775 160, 14.500 160 C 14.225 160, 14 160.225, 14 160.500 M 13 163.500 C 13 163.775, 13.225 164, 13.500 164 C 13.775 164, 14 163.775, 14 163.500 C 14 163.225, 13.775 163, 13.500 163 C 13.225 163, 13 163.225, 13 163.500 M 11 169.500 C 11 169.775, 11.225 170, 11.500 170 C 11.775 170, 12 169.775, 12 169.500 C 12 169.225, 11.775 169, 11.500 169 C 11.225 169, 11 169.225, 11 169.500 M 8 179.500 C 8 179.775, 8.225 180, 8.500 180 C 8.775 180, 9 179.775, 9 179.500 C 9 179.225, 8.775 179, 8.500 179 C 8.225 179, 8 179.225, 8 179.500 M 7 183.500 C 7 183.775, 7.225 184, 7.500 184 C 7.775 184, 8 183.775, 8 183.500 C 8 183.225, 7.775 183, 7.500 183 C 7.225 183, 7 183.225, 7 183.500" stroke="none" fill="#f2faf8" fill-rule="evenodd"/><path d="M 209 1.059 C 209 1.641, 208.560 1.846, 208.023 1.514 C 207.036 0.904, 196.559 2.814, 185.500 5.620 C 165.969 10.575, 138.939 21.701, 124.902 30.562 C 122.778 31.903, 120.757 33, 120.411 33 C 120.066 33, 114.769 36.446, 108.641 40.657 C 51.768 79.743, 14.935 136.750, 2.942 204.250 C -0.204 221.959, -0.969 264.632, 1.482 285.677 C 4.129 308.396, 10.216 330.030, 20.599 353.616 C 43.636 405.948, 85.689 449.647, 137.500 475.094 C 161.005 486.638, 184.204 493.786, 212.500 498.200 C 230.303 500.978, 263.425 501.203, 280.305 498.661 C 327.534 491.548, 368.775 473.817, 403.500 445.693 C 414.983 436.393, 436.314 414.202, 445.272 402.237 C 470.659 368.326, 486.808 328.159, 492.547 284.646 C 493.346 278.586, 494.078 271.349, 494.173 268.564 C 494.344 263.534, 494.350 263.544, 495 270 C 495.360 273.575, 495.657 264.575, 495.659 250 C 495.662 235.425, 495.365 226.200, 495 229.500 L 494.336 235.500 494.168 229.322 C 493.757 214.206, 489.070 189.782, 483.003 171.136 C 468.260 125.826, 444.707 89.740, 410.500 60.048 C 398.350 49.501, 392.341 45.052, 378.297 36.203 C 349.351 17.963, 321.408 7.158, 288.619 1.526 C 277.744 -0.342, 209 -0.745, 209 1.059 M 191 5.500 C 191 5.775, 191.225 6, 191.500 6 C 191.775 6, 192 5.775, 192 5.500 C 192 5.225, 191.775 5, 191.500 5 C 191.225 5, 191 5.225, 191 5.500 M 232.500 14.088 C 208.314 15.327, 190.294 19.105, 167.500 27.716 C 137.912 38.893, 110.679 55.956, 88.314 77.329 C 74.619 90.417, 57.382 111.192, 58.593 113.151 C 60.074 115.547, 63.176 113.444, 68.401 106.503 C 80.445 90.501, 103.946 68.701, 122.500 56.320 C 128.599 52.250, 144.828 43.198, 153 39.308 C 164.036 34.054, 189.418 25.523, 191.036 26.523 C 191.472 26.792, 191.980 26.637, 192.165 26.179 C 192.764 24.688, 212.792 21.202, 219.234 21.467 C 223.274 21.633, 224.612 21.454, 223 20.962 C 220.726 20.268, 220.816 20.189, 224 20.086 C 225.925 20.024, 228.625 19.715, 230 19.400 C 231.960 18.950, 232.176 19.058, 231 19.898 C 229.790 20.762, 230.043 20.972, 232.309 20.985 C 233.930 20.994, 234.857 20.577, 234.500 20 C 233.678 18.670, 250.916 18.693, 267.605 20.044 C 299.262 22.605, 335.057 34.097, 363.958 50.975 C 381.867 61.435, 411.981 88.112, 424.726 104.809 C 430.422 112.272, 435 115.291, 435 111.585 C 435 109.545, 417.118 88.298, 408.368 79.942 C 391.249 63.594, 370.961 48.801, 353.048 39.606 C 328.104 26.802, 290.644 15.874, 266.810 14.450 C 249.655 13.425, 246.156 13.388, 232.500 14.088 M 245.333 20.667 C 245.700 21.033, 246.300 21.033, 246.667 20.667 C 247.033 20.300, 246.733 20, 246 20 C 245.267 20, 244.967 20.300, 245.333 20.667 M 248.333 20.667 C 248.700 21.033, 249.300 21.033, 249.667 20.667 C 250.033 20.300, 249.733 20, 249 20 C 248.267 20, 247.967 20.300, 248.333 20.667 M 226.630 23.030 C 227.313 23.713, 228.478 23.734, 230.080 23.094 C 232.354 22.185, 232.292 22.123, 229.050 22.063 C 226.682 22.020, 225.923 22.323, 226.630 23.030 M 235.333 22.667 C 235.700 23.033, 236.300 23.033, 236.667 22.667 C 237.033 22.300, 236.733 22, 236 22 C 235.267 22, 234.967 22.300, 235.333 22.667 M 205 24.500 C 205 24.775, 205.225 25, 205.500 25 C 205.775 25, 206 24.775, 206 24.500 C 206 24.225, 205.775 24, 205.500 24 C 205.225 24, 205 24.225, 205 24.500 M 185 29 C 184.099 29.582, 183.975 29.975, 184.691 29.985 C 185.346 29.993, 186.160 29.550, 186.500 29 C 187.267 27.758, 186.921 27.758, 185 29 M 192 29.500 C 192 29.775, 192.225 30, 192.500 30 C 192.775 30, 193 29.775, 193 29.500 C 193 29.225, 192.775 29, 192.500 29 C 192.225 29, 192 29.225, 192 29.500 M 180 30.500 C 180 30.775, 180.225 31, 180.500 31 C 180.775 31, 181 30.775, 181 30.500 C 181 30.225, 180.775 30, 180.500 30 C 180.225 30, 180 30.225, 180 30.500 M 172 33.500 C 172 33.775, 172.225 34, 172.500 34 C 172.775 34, 173 33.775, 173 33.500 C 173 33.225, 172.775 33, 172.500 33 C 172.225 33, 172 33.225, 172 33.500 M 166.333 35.667 C 166.700 36.033, 167.300 36.033, 167.667 35.667 C 168.033 35.300, 167.733 35, 167 35 C 166.267 35, 165.967 35.300, 166.333 35.667 M 164 36.500 C 164 36.775, 164.225 37, 164.500 37 C 164.775 37, 165 36.775, 165 36.500 C 165 36.225, 164.775 36, 164.500 36 C 164.225 36, 164 36.225, 164 36.500 M 151 46.500 C 151 46.775, 151.225 47, 151.500 47 C 151.775 47, 152 46.775, 152 46.500 C 152 46.225, 151.775 46, 151.500 46 C 151.225 46, 151 46.225, 151 46.500 M 240.378 55.490 C 232.496 60.215, 230.102 68.116, 234.186 75.926 C 239.479 86.049, 254.219 86.950, 259.961 77.500 C 265.425 68.509, 262.226 58.236, 252.703 54.189 C 248.467 52.389, 244.928 52.762, 240.378 55.490 M 181.936 155.750 C 175.960 158.781, 170.775 164.776, 168.942 170.775 C 167.319 176.085, 166.854 219.898, 167.744 283.575 L 168.500 337.650 171.269 341.833 C 175.008 347.480, 181.023 351.638, 187.574 353.104 C 198.054 355.449, 200.209 354.472, 255 322.538 C 328.433 279.738, 338.726 273.613, 341.342 271.163 C 346.373 266.448, 348.375 261.326, 348.441 253 C 348.492 246.517, 348.119 244.851, 345.687 240.714 C 342.353 235.043, 338.377 232.041, 320.733 221.876 C 313.455 217.682, 291.975 205.257, 273 194.265 C 203.094 153.766, 201.619 153, 193.596 153 C 188.773 153, 186.129 153.623, 181.936 155.750 M 0.437 251 C 0.437 265.575, 0.577 271.538, 0.747 264.250 C 0.918 256.962, 0.918 245.037, 0.747 237.750 C 0.577 230.463, 0.437 236.425, 0.437 251" stroke="none" fill="#4db091" fill-rule="evenodd"/></svg>